<svg id="f02737fd-72c1-4c7a-8ed1-3bbe2454c5db" data-name="Layer 1" xmlns="http://www.w3.org/2000/svg" width="846.57778" height="682.58345" viewBox="0 0 846.57778 682.58345"><path d="M819.635,269.70286h-2.27v-113.96a38.99,38.99,0,0,0-38.99-38.98975H524.585a38.99,38.99,0,0,0-38.99,38.98975v49.93017h-.86a2.29009,2.29009,0,0,0-2.29,2.29v22.33008a2.29008,2.29008,0,0,0,2.29,2.29h.86v22.3501h-1.06a2.28977,2.28977,0,0,0-2.29,2.29v42.25976a2.29008,2.29008,0,0,0,2.29,2.29h1.06v16.39014h-.96a2.28968,2.28968,0,0,0-2.29,2.28955V363.113a2.2901,2.2901,0,0,0,2.29,2.29h.96V752.03294a38.99013,38.99013,0,0,0,38.99,38.99023h253.79a38.99013,38.99013,0,0,0,38.99-38.99023V351.43333h2.27a2.29008,2.29008,0,0,0,2.29-2.29V271.9929A2.29008,2.29008,0,0,0,819.635,269.70286Z" transform="translate(-176.71111 -108.70827)" fill="#3f3d56"/><path d="M661.93489,146.7927H623.345a4.37457,4.37457,0,0,1-4.37011-4.36914v-1.6709a4.37457,4.37457,0,0,1,4.37011-4.36914h38.58985a4.37458,4.37458,0,0,1,4.37012,4.36914v1.6709A4.37458,4.37458,0,0,1,661.93489,146.7927Z" transform="translate(-176.71111 -108.70827)" fill="#fff"/><circle cx="501.43392" cy="32.88485" r="5.34001" fill="#fff"/><path d="M770.525,134.31312h-38v4.57a21.7,21.7,0,0,1-21.7,21.7H589.765a21.69,21.69,0,0,1-21.7-21.68v-4.59h-35.63a26.35,26.35,0,0,0-26.35,26.35h0v586.44a26.35,26.35,0,0,0,26.35,26.35h238.09a26.34,26.34,0,0,0,26.34-26.34v-586.45a26.34,26.34,0,0,0-26.33-26.35Z" transform="translate(-176.71111 -108.70827)" fill="#fff"/><path d="M702.47553,702.29173H600.475a27.5,27.5,0,0,1,0-55H702.47553a27.5,27.5,0,0,1,0,55Z" transform="translate(-176.71111 -108.70827)" fill="#6c63ff"/><path d="M742.47553,476.40306H560.475a9.5,9.5,0,0,1,0-19H742.47553a9.5,9.5,0,0,1,0,19Z" transform="translate(-176.71111 -108.70827)" fill="#e6e6e6" style="isolation:isolate"/><path d="M742.47553,504.40306H560.475a9.5,9.5,0,0,1,0-19H742.47553a9.5,9.5,0,0,1,0,19Z" transform="translate(-176.71111 -108.70827)" fill="#e6e6e6" style="isolation:isolate"/><path d="M742.47553,532.40306H560.475a9.5,9.5,0,0,1,0-19H742.47553a9.5,9.5,0,0,1,0,19Z" transform="translate(-176.71111 -108.70827)" fill="#e6e6e6" style="isolation:isolate"/><path d="M742.47553,560.40306H560.475a9.5,9.5,0,0,1,0-19H742.47553a9.5,9.5,0,0,1,0,19Z" transform="translate(-176.71111 -108.70827)" fill="#e6e6e6" style="isolation:isolate"/><path d="M618.47553,588.40306H560.475a9.5,9.5,0,0,1,0-19h58.00049a9.5,9.5,0,0,1,0,19Z" transform="translate(-176.71111 -108.70827)" fill="#e6e6e6" style="isolation:isolate"/><path d="M770.96094,398.55176H531.98926A7.97707,7.97707,0,0,1,524.021,390.584V213.22217a7.97707,7.97707,0,0,1,7.96826-7.96778H770.96094a7.97666,7.97666,0,0,1,7.96777,7.96778V390.584A7.97666,7.97666,0,0,1,770.96094,398.55176Z" transform="translate(-176.71111 -108.70827)" fill="#e6e6e6" style="isolation:isolate"/></svg>